<svg width="20" height="20" viewBox="0 0 20 20" fill="none" xmlns="http://www.w3.org/2000/svg">
<path d="M7.38462 15.8599C4.25 16.5 4.25 14.7 2 13.7197L4.7 15.15L7.38462 15.8599ZM12.7692 18V15.2392C12.7981 14.8991 12.7485 14.5571 12.6239 14.2361C12.4992 13.9151 12.3023 13.6223 12.0462 13.3773C14.4615 13.1276 17 12.2787 17 8.3837C16.9998 7.3877 16.5867 6.4299 15.8462 5.70854C16.1968 4.83716 16.172 3.87399 15.7769 3.01911C15.7769 3.01911 14.8692 2.76943 12.7692 4.07491C11.0062 3.63178 9.14769 3.63178 7.38462 4.07491C5.28462 2.76943 4.37692 3.01911 4.37692 3.01911C3.98183 3.87399 3.95703 4.83716 4.30769 5.70854C3.56164 6.43525 3.14809 7.40171 3.15385 8.4051C3.15385 12.2716 5.69231 13.1205 8.10769 13.3987C7.85461 13.6413 7.65943 13.9305 7.53485 14.2476C7.41027 14.5647 7.35908 14.9026 7.38462 15.2392V18" fill="white"/>
<path d="M12.7692 18V15.2392C12.7981 14.8991 12.7485 14.5571 12.6239 14.2361C12.4992 13.9151 12.3023 13.6223 12.0462 13.3773C14.4615 13.1276 17 12.2787 17 8.3837C16.9998 7.3877 16.5867 6.4299 15.8462 5.70854C16.1968 4.83716 16.172 3.87399 15.7769 3.01911C15.7769 3.01911 14.8692 2.76943 12.7692 4.07491C11.0062 3.63178 9.14769 3.63178 7.38462 4.07491C5.28462 2.76943 4.37692 3.01911 4.37692 3.01911C3.98183 3.87399 3.95703 4.83716 4.30769 5.70854C3.56164 6.43525 3.14809 7.40171 3.15385 8.4051C3.15385 12.2716 5.69231 13.1205 8.10769 13.3987C7.85461 13.6413 7.65943 13.9305 7.53485 14.2476C7.41027 14.5647 7.35908 14.9026 7.38462 15.2392V18M7.38462 15.8599C4.25 16.5 4.25 14.7 2 13.7197L4.7 15.15L7.38462 15.8599Z" stroke="white" stroke-linecap="round" stroke-linejoin="round"/>
</svg>
