<svg width="24" height="24" viewBox="0 0 24 24" fill="none" xmlns="http://www.w3.org/2000/svg">
<path d="M20.4042 5.76289L22 4.31658V4H16.4717L12.5317 13.2905L8.04917 4H2.2525V4.31658L4.11667 6.44263C4.29833 6.59974 4.39333 6.82947 4.36917 7.06079V15.4158C4.42667 15.7166 4.32333 16.0261 4.1 16.2447L2 18.6558V18.9684H7.95417V18.6518L5.85417 16.2447C5.62667 16.0253 5.51917 15.7213 5.565 15.4158V8.18895L10.7917 18.9724H11.3992L15.8933 8.18895V16.7792C15.8933 17.0058 15.8933 17.0524 15.7367 17.2008L14.12 18.6826V19H21.9633V18.6834L20.405 17.2379C20.2683 17.14 20.1975 16.9758 20.2267 16.8163V6.18447C20.1975 6.02421 20.2675 5.86 20.4042 5.76289Z" fill="white"/>
</svg>
