<svg width="24" height="24" viewBox="0 0 24 24" fill="none" xmlns="http://www.w3.org/2000/svg">
<rect x="2" y="20" width="21" height="3" rx="1" fill="url(#paint0_linear)"/>
<g filter="url(#filter0_bi)">
<path d="M11.2943 10.6624L10.6666 11.2919C10.2766 11.683 10.2766 12.317 10.6666 12.7081L11.2943 13.3376C11.6843 13.7287 12.3165 13.7287 12.7065 13.3376L13.3342 12.7081C13.7242 12.317 13.7242 11.683 13.3342 11.2919L12.7065 10.6624C12.3165 10.2713 11.6843 10.2713 11.2943 10.6624Z" fill="#F1F1F1" fill-opacity="0.3"/>
<path d="M11.2943 10.6624L10.6666 11.2919C10.2766 11.683 10.2766 12.317 10.6666 12.7081L11.2943 13.3376C11.6843 13.7287 12.3165 13.7287 12.7065 13.3376L13.3342 12.7081C13.7242 12.317 13.7242 11.683 13.3342 11.2919L12.7065 10.6624C12.3165 10.2713 11.6843 10.2713 11.2943 10.6624Z" fill="url(#paint1_linear)" fill-opacity="0.2"/>
<path d="M10.7372 11.3627L11.3649 10.7332C11.7159 10.3812 12.2849 10.3812 12.6359 10.7332L13.2636 11.3627C13.6146 11.7147 13.6146 12.2853 13.2636 12.6373L12.6359 13.2668C12.2849 13.6188 11.7159 13.6188 11.3649 13.2668L10.7372 12.6373C10.3862 12.2853 10.3862 11.7147 10.7372 11.3627Z" stroke="url(#paint2_linear)" stroke-opacity="0.1" stroke-width="0.2"/>
</g>
<g filter="url(#filter1_bi)">
<path d="M3.31939 10.6806L2.7071 11.2929C2.31658 11.6834 2.31658 12.3166 2.7071 12.7071L3.31939 13.3194C3.70991 13.7099 4.34307 13.7099 4.73359 13.3194L5.34588 12.7071C5.7364 12.3166 5.7364 11.6834 5.34588 11.2929L4.73359 10.6806C4.34307 10.2901 3.70991 10.2901 3.31939 10.6806Z" fill="#F1F1F1" fill-opacity="0.3"/>
<path d="M3.31939 10.6806L2.7071 11.2929C2.31658 11.6834 2.31658 12.3166 2.7071 12.7071L3.31939 13.3194C3.70991 13.7099 4.34307 13.7099 4.73359 13.3194L5.34588 12.7071C5.7364 12.3166 5.7364 11.6834 5.34588 11.2929L4.73359 10.6806C4.34307 10.2901 3.70991 10.2901 3.31939 10.6806Z" fill="url(#paint3_linear)" fill-opacity="0.2"/>
<path d="M2.77781 11.3636L3.3901 10.7513C3.74157 10.3999 4.31141 10.3999 4.66288 10.7513L5.27517 11.3636C5.62664 11.7151 5.62664 12.2849 5.27517 12.6364L4.66288 13.2487C4.31141 13.6001 3.74157 13.6001 3.3901 13.2487L2.77781 12.6364C2.42634 12.2849 2.42634 11.7151 2.77781 11.3636Z" stroke="url(#paint4_linear)" stroke-opacity="0.1" stroke-width="0.2"/>
</g>
<g filter="url(#filter2_bi)">
<path d="M19.3079 10.708L18.7061 11.3114C18.3161 11.7025 18.3161 12.3366 18.7061 12.7276L19.3079 13.3311C19.6978 13.7222 20.3301 13.7222 20.7201 13.3311L21.3218 12.7276C21.7118 12.3366 21.7118 11.7025 21.3218 11.3114L20.7201 10.708C20.3301 10.3169 19.6978 10.3169 19.3079 10.708Z" fill="#F1F1F1" fill-opacity="0.3"/>
<path d="M19.3079 10.708L18.7061 11.3114C18.3161 11.7025 18.3161 12.3366 18.7061 12.7276L19.3079 13.3311C19.6978 13.7222 20.3301 13.7222 20.7201 13.3311L21.3218 12.7276C21.7118 12.3366 21.7118 11.7025 21.3218 11.3114L20.7201 10.708C20.3301 10.3169 19.6978 10.3169 19.3079 10.708Z" fill="url(#paint5_linear)" fill-opacity="0.2"/>
<path d="M18.7767 11.3822L19.3785 10.7788C19.7295 10.4268 20.2985 10.4268 20.6495 10.7788L21.2512 11.3822C21.6022 11.7342 21.6022 12.3049 21.2512 12.6568L20.6495 13.2603C20.2985 13.6122 19.7295 13.6122 19.3785 13.2603L18.7767 12.6568C18.4257 12.3049 18.4257 11.7342 18.7767 11.3822Z" stroke="url(#paint6_linear)" stroke-opacity="0.1" stroke-width="0.2"/>
</g>
<g filter="url(#filter3_bi)">
<path d="M11.2659 6.08468C11.6497 5.71442 12.2565 5.71049 12.6451 6.07573L15.0622 8.3478C15.4508 8.71304 16.0576 8.70911 16.4414 8.33885L17.254 7.55499C17.6616 7.16176 17.6616 6.50883 17.254 6.1156L14.2927 3.25882L12.6604 1.6842C12.2671 1.30471 11.6419 1.31137 11.2567 1.69913L9.70732 3.25882L6.74602 6.1156C6.33841 6.50882 6.33841 7.16176 6.74602 7.55499L7.54961 8.33021C7.93703 8.70395 8.55078 8.70395 8.93819 8.33021L11.2659 6.08468Z" fill="#F1F1F1" fill-opacity="0.3"/>
<path d="M11.2659 6.08468C11.6497 5.71442 12.2565 5.71049 12.6451 6.07573L15.0622 8.3478C15.4508 8.71304 16.0576 8.70911 16.4414 8.33885L17.254 7.55499C17.6616 7.16176 17.6616 6.50883 17.254 6.1156L14.2927 3.25882L12.6604 1.6842C12.2671 1.30471 11.6419 1.31137 11.2567 1.69913L9.70732 3.25882L6.74602 6.1156C6.33841 6.50882 6.33841 7.16176 6.74602 7.55499L7.54961 8.33021C7.93703 8.70395 8.55078 8.70395 8.93819 8.33021L11.2659 6.08468Z" fill="url(#paint7_linear)" fill-opacity="0.2"/>
<path d="M9.77675 3.33079L9.77676 3.33081L9.77826 3.3293L11.3277 1.76961C11.6743 1.42062 12.237 1.41463 12.591 1.75617L14.2233 3.33079L17.1845 6.18757C17.5514 6.54147 17.5514 7.12912 17.1845 7.48302L16.372 8.26688C16.0266 8.60011 15.4804 8.60365 15.1307 8.27493L12.7136 6.00287C12.2861 5.6011 11.6186 5.60543 11.1965 6.01271L8.86877 8.25824C8.52009 8.59461 7.96771 8.59461 7.61904 8.25824L6.81545 7.48302C6.4486 7.12912 6.4486 6.54147 6.81545 6.18757L9.77675 3.33079Z" stroke="url(#paint8_linear)" stroke-opacity="0.1" stroke-width="0.2"/>
</g>
<g filter="url(#filter4_bi)">
<path d="M12.6494 17.9549C12.2597 18.3256 11.6466 18.3217 11.2617 17.9459L8.94244 15.6819C8.55396 15.3027 7.93385 15.3027 7.54537 15.6819L6.73303 16.4749C6.33108 16.8673 6.33108 17.5137 6.73303 17.9061L9.70732 20.8095L11.2674 22.3324C11.65 22.7059 12.2587 22.7124 12.6491 22.3471L14.2927 20.8095L17.267 17.9061C17.6689 17.5137 17.6689 16.8673 17.267 16.4749L16.4456 15.6731C16.0607 15.2974 15.4476 15.2934 15.0579 15.6641L12.6494 17.9549Z" fill="#F1F1F1" fill-opacity="0.3"/>
<path d="M12.6494 17.9549C12.2597 18.3256 11.6466 18.3217 11.2617 17.9459L8.94244 15.6819C8.55396 15.3027 7.93385 15.3027 7.54537 15.6819L6.73303 16.4749C6.33108 16.8673 6.33108 17.5137 6.73303 17.9061L9.70732 20.8095L11.2674 22.3324C11.65 22.7059 12.2587 22.7124 12.6491 22.3471L14.2927 20.8095L17.267 17.9061C17.6689 17.5137 17.6689 16.8673 17.267 16.4749L16.4456 15.6731C16.0607 15.2974 15.4476 15.2934 15.0579 15.6641L12.6494 17.9549Z" fill="url(#paint9_linear)" fill-opacity="0.2"/>
<path d="M11.1918 18.0175C11.6152 18.4308 12.2896 18.4352 12.7183 18.0274L15.1268 15.7366C15.4776 15.4029 16.0294 15.4065 16.3758 15.7447L17.1971 16.5465C17.5589 16.8996 17.5589 17.4814 17.1971 17.8345L14.2236 20.7372L12.5808 22.2741C12.2294 22.6028 11.6816 22.597 11.3372 22.2609L9.77717 20.738L6.80288 17.8345C6.44113 17.4814 6.44112 16.8996 6.80288 16.5465L7.61522 15.7535C7.96486 15.4122 8.52295 15.4122 8.87259 15.7535L11.1918 18.0175Z" stroke="url(#paint10_linear)" stroke-opacity="0.1" stroke-width="0.2"/>
</g>
<defs>
<filter id="filter0_bi" x="7.37402" y="7.36914" width="9.25265" height="9.2618" filterUnits="userSpaceOnUse" color-interpolation-filters="sRGB">
<feFlood flood-opacity="0" result="BackgroundImageFix"/>
<feGaussianBlur in="BackgroundImage" stdDeviation="1.5"/>
<feComposite in2="SourceAlpha" operator="in" result="effect1_backgroundBlur"/>
<feBlend mode="normal" in="SourceGraphic" in2="effect1_backgroundBlur" result="shape"/>
<feColorMatrix in="SourceAlpha" type="matrix" values="0 0 0 0 0 0 0 0 0 0 0 0 0 0 0 0 0 0 127 0" result="hardAlpha"/>
<feOffset dy="0.5"/>
<feGaussianBlur stdDeviation="1"/>
<feComposite in2="hardAlpha" operator="arithmetic" k2="-1" k3="1"/>
<feColorMatrix type="matrix" values="0 0 0 0 1 0 0 0 0 1 0 0 0 0 1 0 0 0 0.4 0"/>
<feBlend mode="normal" in2="shape" result="effect2_innerShadow"/>
</filter>
<filter id="filter1_bi" x="-0.585693" y="7.3877" width="9.22456" height="9.22456" filterUnits="userSpaceOnUse" color-interpolation-filters="sRGB">
<feFlood flood-opacity="0" result="BackgroundImageFix"/>
<feGaussianBlur in="BackgroundImage" stdDeviation="1.5"/>
<feComposite in2="SourceAlpha" operator="in" result="effect1_backgroundBlur"/>
<feBlend mode="normal" in="SourceGraphic" in2="effect1_backgroundBlur" result="shape"/>
<feColorMatrix in="SourceAlpha" type="matrix" values="0 0 0 0 0 0 0 0 0 0 0 0 0 0 0 0 0 0 127 0" result="hardAlpha"/>
<feOffset dy="0.5"/>
<feGaussianBlur stdDeviation="1"/>
<feComposite in2="hardAlpha" operator="arithmetic" k2="-1" k3="1"/>
<feColorMatrix type="matrix" values="0 0 0 0 1 0 0 0 0 1 0 0 0 0 1 0 0 0 0.4 0"/>
<feBlend mode="normal" in2="shape" result="effect2_innerShadow"/>
</filter>
<filter id="filter2_bi" x="15.4136" y="7.41455" width="9.2007" height="9.20971" filterUnits="userSpaceOnUse" color-interpolation-filters="sRGB">
<feFlood flood-opacity="0" result="BackgroundImageFix"/>
<feGaussianBlur in="BackgroundImage" stdDeviation="1.5"/>
<feComposite in2="SourceAlpha" operator="in" result="effect1_backgroundBlur"/>
<feBlend mode="normal" in="SourceGraphic" in2="effect1_backgroundBlur" result="shape"/>
<feColorMatrix in="SourceAlpha" type="matrix" values="0 0 0 0 0 0 0 0 0 0 0 0 0 0 0 0 0 0 127 0" result="hardAlpha"/>
<feOffset dy="0.5"/>
<feGaussianBlur stdDeviation="1"/>
<feComposite in2="hardAlpha" operator="arithmetic" k2="-1" k3="1"/>
<feColorMatrix type="matrix" values="0 0 0 0 1 0 0 0 0 1 0 0 0 0 1 0 0 0 0.4 0"/>
<feBlend mode="normal" in2="shape" result="effect2_innerShadow"/>
</filter>
<filter id="filter3_bi" x="3.44043" y="-1.59619" width="17.1194" height="13.2153" filterUnits="userSpaceOnUse" color-interpolation-filters="sRGB">
<feFlood flood-opacity="0" result="BackgroundImageFix"/>
<feGaussianBlur in="BackgroundImage" stdDeviation="1.5"/>
<feComposite in2="SourceAlpha" operator="in" result="effect1_backgroundBlur"/>
<feBlend mode="normal" in="SourceGraphic" in2="effect1_backgroundBlur" result="shape"/>
<feColorMatrix in="SourceAlpha" type="matrix" values="0 0 0 0 0 0 0 0 0 0 0 0 0 0 0 0 0 0 127 0" result="hardAlpha"/>
<feOffset dy="0.5"/>
<feGaussianBlur stdDeviation="1"/>
<feComposite in2="hardAlpha" operator="arithmetic" k2="-1" k3="1"/>
<feColorMatrix type="matrix" values="0 0 0 0 1 0 0 0 0 1 0 0 0 0 1 0 0 0 0.4 0"/>
<feBlend mode="normal" in2="shape" result="effect2_innerShadow"/>
</filter>
<filter id="filter4_bi" x="3.43164" y="12.3887" width="17.1369" height="13.2282" filterUnits="userSpaceOnUse" color-interpolation-filters="sRGB">
<feFlood flood-opacity="0" result="BackgroundImageFix"/>
<feGaussianBlur in="BackgroundImage" stdDeviation="1.5"/>
<feComposite in2="SourceAlpha" operator="in" result="effect1_backgroundBlur"/>
<feBlend mode="normal" in="SourceGraphic" in2="effect1_backgroundBlur" result="shape"/>
<feColorMatrix in="SourceAlpha" type="matrix" values="0 0 0 0 0 0 0 0 0 0 0 0 0 0 0 0 0 0 127 0" result="hardAlpha"/>
<feOffset dy="0.5"/>
<feGaussianBlur stdDeviation="1"/>
<feComposite in2="hardAlpha" operator="arithmetic" k2="-1" k3="1"/>
<feColorMatrix type="matrix" values="0 0 0 0 1 0 0 0 0 1 0 0 0 0 1 0 0 0 0.4 0"/>
<feBlend mode="normal" in2="shape" result="effect2_innerShadow"/>
</filter>
<linearGradient id="paint0_linear" x1="2.875" y1="20.6" x2="14.8702" y2="32.262" gradientUnits="userSpaceOnUse">
<stop stop-color="#DA1E5E"/>
<stop offset="1" stop-color="#F69322"/>
</linearGradient>
<linearGradient id="paint1_linear" x1="10.4534" y1="12.3239" x2="12.9912" y2="10.4105" gradientUnits="userSpaceOnUse">
<stop stop-color="#DA1E5E"/>
<stop offset="1" stop-color="#F69322"/>
</linearGradient>
<linearGradient id="paint2_linear" x1="10.1169" y1="12.0291" x2="12.0987" y2="10.0529" gradientUnits="userSpaceOnUse">
<stop stop-color="#DA1E5E"/>
<stop offset="1" stop-color="#F69322"/>
</linearGradient>
<linearGradient id="paint3_linear" x1="2.48974" y1="12.3209" x2="5.00559" y2="10.4186" gradientUnits="userSpaceOnUse">
<stop stop-color="#DA1E5E"/>
<stop offset="1" stop-color="#F69322"/>
</linearGradient>
<linearGradient id="paint4_linear" x1="2.15544" y1="12.0288" x2="4.1186" y2="10.0656" gradientUnits="userSpaceOnUse">
<stop stop-color="#DA1E5E"/>
<stop offset="1" stop-color="#F69322"/>
</linearGradient>
<linearGradient id="paint5_linear" x1="18.4867" y1="12.3393" x2="20.9921" y2="10.4503" gradientUnits="userSpaceOnUse">
<stop stop-color="#DA1E5E"/>
<stop offset="1" stop-color="#F69322"/>
</linearGradient>
<linearGradient id="paint6_linear" x1="18.1545" y1="12.0482" x2="20.111" y2="10.0972" gradientUnits="userSpaceOnUse">
<stop stop-color="#DA1E5E"/>
<stop offset="1" stop-color="#F69322"/>
</linearGradient>
<linearGradient id="paint7_linear" x1="6.5" y1="2.6" x2="19.2787" y2="5.26223" gradientUnits="userSpaceOnUse">
<stop stop-color="#DA1E5E"/>
<stop offset="1" stop-color="#F69322"/>
</linearGradient>
<linearGradient id="paint8_linear" x1="6.375" y1="1.36364" x2="18" y2="1.36364" gradientUnits="userSpaceOnUse">
<stop stop-color="#DA1E5E"/>
<stop offset="1" stop-color="#F69322"/>
</linearGradient>
<linearGradient id="paint9_linear" x1="6.5" y1="16.6" x2="19.2787" y2="19.2622" gradientUnits="userSpaceOnUse">
<stop stop-color="#DA1E5E"/>
<stop offset="1" stop-color="#F69322"/>
</linearGradient>
<linearGradient id="paint10_linear" x1="6.375" y1="15.3636" x2="18" y2="15.3636" gradientUnits="userSpaceOnUse">
<stop stop-color="#DA1E5E"/>
<stop offset="1" stop-color="#F69322"/>
</linearGradient>
</defs>
</svg>
