<svg width="24" height="24" viewBox="0 0 24 24" fill="none" xmlns="http://www.w3.org/2000/svg">
<rect x="6" y="7" width="12" height="2" rx="1" fill="url(#paint0_linear)"/>
<g filter="url(#filter0_bi)">
<path d="M16.4985 9.90064C15.8049 9.37897 15.4647 8.49797 15.6981 7.6621L16.6456 4.26896C16.8237 3.63146 16.3444 3 15.6825 3H8.31751C7.65562 3 7.17634 3.63146 7.35436 4.26896L8.30191 7.6621C8.53533 8.49797 8.19508 9.37897 7.50152 9.90064C5.38789 11.4904 4 13.2497 4 16C4 20.4183 7.58172 22 12 22C16.4183 22 20 20.4183 20 16C20 13.2497 18.6121 11.4904 16.4985 9.90064Z" fill="#F1F1F1" fill-opacity="0.1"/>
<path d="M16.4985 9.90064C15.8049 9.37897 15.4647 8.49797 15.6981 7.6621L16.6456 4.26896C16.8237 3.63146 16.3444 3 15.6825 3H8.31751C7.65562 3 7.17634 3.63146 7.35436 4.26896L8.30191 7.6621C8.53533 8.49797 8.19508 9.37897 7.50152 9.90064C5.38789 11.4904 4 13.2497 4 16C4 20.4183 7.58172 22 12 22C16.4183 22 20 20.4183 20 16C20 13.2497 18.6121 11.4904 16.4985 9.90064Z" fill="url(#paint1_linear)" fill-opacity="0.2"/>
<path d="M15.6018 7.63521C15.3563 8.51437 15.715 9.43647 16.4384 9.98055C18.5391 11.5606 19.9 13.2937 19.9 16C19.9 18.1771 19.0202 19.6449 17.6021 20.5732C16.1775 21.5057 14.2 21.9 12 21.9C9.80004 21.9 7.82248 21.5057 6.39792 20.5732C4.97985 19.6449 4.1 18.1771 4.1 16C4.1 13.2937 5.46094 11.5606 7.56163 9.98055C8.28498 9.43647 8.64373 8.51437 8.39822 7.6352L7.45068 4.24207C7.29046 3.66832 7.72181 3.1 8.31751 3.1H15.6825C16.2782 3.1 16.7095 3.66832 16.5493 4.24207L15.6018 7.63521Z" stroke="url(#paint2_linear)" stroke-opacity="0.1" stroke-width="0.2"/>
</g>
<defs>
<filter id="filter0_bi" x="1" y="0" width="22" height="25" filterUnits="userSpaceOnUse" color-interpolation-filters="sRGB">
<feFlood flood-opacity="0" result="BackgroundImageFix"/>
<feGaussianBlur in="BackgroundImage" stdDeviation="1.5"/>
<feComposite in2="SourceAlpha" operator="in" result="effect1_backgroundBlur"/>
<feBlend mode="normal" in="SourceGraphic" in2="effect1_backgroundBlur" result="shape"/>
<feColorMatrix in="SourceAlpha" type="matrix" values="0 0 0 0 0 0 0 0 0 0 0 0 0 0 0 0 0 0 127 0" result="hardAlpha"/>
<feOffset dy="0.5"/>
<feGaussianBlur stdDeviation="1"/>
<feComposite in2="hardAlpha" operator="arithmetic" k2="-1" k3="1"/>
<feColorMatrix type="matrix" values="0 0 0 0 1 0 0 0 0 1 0 0 0 0 1 0 0 0 0.4 0"/>
<feBlend mode="normal" in2="shape" result="effect2_innerShadow"/>
</filter>
<linearGradient id="paint0_linear" x1="6" y1="7" x2="10.5308" y2="13.9027" gradientUnits="userSpaceOnUse">
<stop stop-color="#FFD482"/>
<stop offset="1" stop-color="#FF377F"/>
</linearGradient>
<linearGradient id="paint1_linear" x1="4" y1="3" x2="23.1855" y2="7.10236" gradientUnits="userSpaceOnUse">
<stop stop-color="#FFD482"/>
<stop offset="1" stop-color="#FF377F"/>
</linearGradient>
<linearGradient id="paint2_linear" x1="4.5" y1="3.86364" x2="20" y2="3.86364" gradientUnits="userSpaceOnUse">
<stop stop-color="#FFC282"/>
<stop offset="1" stop-color="#FF4980"/>
</linearGradient>
</defs>
</svg>
