<svg width="24" height="24" viewBox="0 0 24 24" fill="none" xmlns="http://www.w3.org/2000/svg">
<path d="M18.3601 6.64001C19.6185 7.8988 20.4754 9.50246 20.8224 11.2482C21.1694 12.994 20.991 14.8034 20.3098 16.4478C19.6285 18.0921 18.4749 19.4976 16.9949 20.4864C15.515 21.4752 13.775 22.0029 11.9951 22.0029C10.2152 22.0029 8.47527 21.4752 6.99529 20.4864C5.51532 19.4976 4.36176 18.0921 3.68049 16.4478C2.99921 14.8034 2.82081 12.994 3.16784 11.2482C3.51487 9.50246 4.37174 7.8988 5.63012 6.64001" stroke="url(#paint0_linear)" stroke-width="2" stroke-linecap="round" stroke-linejoin="round"/>
<path d="M12 2V12" stroke="url(#paint1_linear)" stroke-width="2" stroke-linecap="round" stroke-linejoin="round"/>
<defs>
<linearGradient id="paint0_linear" x1="4.08603" y1="7.65073" x2="20.9294" y2="9.19346" gradientUnits="userSpaceOnUse">
<stop stop-color="#DA1E5E"/>
<stop offset="1" stop-color="#F69322"/>
</linearGradient>
<linearGradient id="paint1_linear" x1="12.0606" y1="2.65789" x2="13.0041" y2="2.66527" gradientUnits="userSpaceOnUse">
<stop stop-color="#DA1E5E"/>
<stop offset="1" stop-color="#F69322"/>
</linearGradient>
</defs>
</svg>
