<svg width="24" height="24" viewBox="0 0 24 24" fill="none" xmlns="http://www.w3.org/2000/svg">
<path d="M7.58579 17.5858L6.41421 16.4142C5.63317 15.6332 5.63317 14.3668 6.41421 13.5858L9.58579 10.4142C10.3668 9.63316 11.6332 9.63316 12.4142 10.4142L13.5858 11.5858C14.3668 12.3668 14.3668 13.6332 13.5858 14.4142L10.4142 17.5858C9.63316 18.3668 8.36684 18.3668 7.58579 17.5858Z" fill="url(#paint0_linear)"/>
<g filter="url(#filter0_bi)">
<path d="M13.1301 22.1902L11.5001 18.3602C13.0701 17.7802 14.5401 17.0002 15.9001 16.0902L13.1301 22.1902ZM5.64006 12.5002L1.81006 10.8702L7.91006 8.10015C7.00006 9.46016 6.22006 10.9302 5.64006 12.5002ZM21.6101 2.39015C21.6101 2.39015 16.6601 0.269155 11.0001 5.93015C8.81006 8.12015 7.50006 10.5302 6.65006 12.6402C6.37006 13.3902 6.56006 14.2102 7.11006 14.7702L9.24006 16.8902C9.79006 17.4502 10.6101 17.6302 11.3601 17.3502C13.5001 16.5302 15.8801 15.1902 18.0701 13.0002C23.7301 7.34015 21.6101 2.39015 21.6101 2.39015ZM14.5401 9.46015C13.7601 8.68015 13.7601 7.41015 14.5401 6.63015C15.3201 5.85015 16.5901 5.85015 17.3701 6.63015C18.1401 7.41015 18.1501 8.68015 17.3701 9.46015C16.5901 10.2402 15.3201 10.2402 14.5401 9.46015ZM6.24006 22.0002L9.88006 18.3602C9.54006 18.2702 9.21006 18.1202 8.91006 17.9102L4.83006 22.0002H6.24006ZM2.00006 22.0002H3.41006L8.18006 17.2402L6.76006 15.8302L2.00006 20.5902V22.0002ZM2.00006 19.1702L6.09006 15.0902C5.88006 14.7902 5.73006 14.4702 5.64006 14.1202L2.00006 17.7602V19.1702Z" fill="#F1F1F1" fill-opacity="0.1"/>
<path d="M13.1301 22.1902L11.5001 18.3602C13.0701 17.7802 14.5401 17.0002 15.9001 16.0902L13.1301 22.1902ZM5.64006 12.5002L1.81006 10.8702L7.91006 8.10015C7.00006 9.46016 6.22006 10.9302 5.64006 12.5002ZM21.6101 2.39015C21.6101 2.39015 16.6601 0.269155 11.0001 5.93015C8.81006 8.12015 7.50006 10.5302 6.65006 12.6402C6.37006 13.3902 6.56006 14.2102 7.11006 14.7702L9.24006 16.8902C9.79006 17.4502 10.6101 17.6302 11.3601 17.3502C13.5001 16.5302 15.8801 15.1902 18.0701 13.0002C23.7301 7.34015 21.6101 2.39015 21.6101 2.39015ZM14.5401 9.46015C13.7601 8.68015 13.7601 7.41015 14.5401 6.63015C15.3201 5.85015 16.5901 5.85015 17.3701 6.63015C18.1401 7.41015 18.1501 8.68015 17.3701 9.46015C16.5901 10.2402 15.3201 10.2402 14.5401 9.46015ZM6.24006 22.0002L9.88006 18.3602C9.54006 18.2702 9.21006 18.1202 8.91006 17.9102L4.83006 22.0002H6.24006ZM2.00006 22.0002H3.41006L8.18006 17.2402L6.76006 15.8302L2.00006 20.5902V22.0002ZM2.00006 19.1702L6.09006 15.0902C5.88006 14.7902 5.73006 14.4702 5.64006 14.1202L2.00006 17.7602V19.1702Z" fill="url(#paint1_linear)" fill-opacity="0.2"/>
<path d="M11.0708 6.00087L11.0708 6.00086C13.8847 3.18645 16.5156 2.31206 18.4366 2.13687C19.3982 2.04918 20.1841 2.13647 20.7286 2.24526C21.0008 2.29966 21.2126 2.35941 21.3558 2.4053C21.4273 2.42824 21.4817 2.44772 21.5179 2.46132C21.5234 2.46338 21.5285 2.46531 21.5331 2.4671C21.5349 2.47174 21.5368 2.47682 21.5389 2.48231C21.5525 2.51847 21.5719 2.57286 21.5949 2.64442C21.6407 2.78756 21.7005 2.99937 21.7548 3.27161C21.8635 3.81609 21.9507 4.60199 21.863 5.56357C21.6877 7.48466 20.8133 10.1155 17.9993 12.9294C15.8209 15.1079 13.4537 16.4408 11.3247 17.2566C10.6112 17.5228 9.83318 17.3513 9.31141 16.8201L9.3106 16.8193L7.1814 14.7001C7.18127 14.7 7.18114 14.6998 7.18102 14.6997C6.658 14.1669 6.47799 13.3884 6.7433 12.6763C7.58985 10.5752 8.89328 8.17836 11.0708 6.00087ZM17.4412 6.5599L17.4408 6.55944C16.6217 5.74039 15.2884 5.74039 14.4693 6.55944C13.6503 7.3785 13.6503 8.71181 14.4693 9.53087C15.2884 10.3499 16.6217 10.3499 17.4408 9.53087C18.2604 8.71124 18.2491 7.37827 17.4412 6.5599ZM15.6658 16.3642L13.133 21.9418L11.6331 18.4173C13.0637 17.8798 14.4104 17.1777 15.6658 16.3642ZM7.63605 8.33441C6.82247 9.5898 6.12038 10.9366 5.5829 12.3671L2.05845 10.8672L7.63605 8.33441ZM5.07106 21.9002L8.92234 18.0394C9.16407 18.1991 9.42316 18.3222 9.69023 18.4086L6.19864 21.9002H5.07106ZM8.03831 17.2403L3.3687 21.9002H2.10006V20.6316L6.76031 15.9713L8.03831 17.2403ZM5.59084 14.3108C5.67742 14.5827 5.80083 14.8369 5.96072 15.0779L2.10006 18.9292V17.8016L5.59084 14.3108Z" stroke="url(#paint2_linear)" stroke-opacity="0.1" stroke-width="0.2"/>
</g>
<defs>
<filter id="filter0_bi" x="-1.18994" y="-0.999023" width="26.1889" height="26.1892" filterUnits="userSpaceOnUse" color-interpolation-filters="sRGB">
<feFlood flood-opacity="0" result="BackgroundImageFix"/>
<feGaussianBlur in="BackgroundImage" stdDeviation="1.5"/>
<feComposite in2="SourceAlpha" operator="in" result="effect1_backgroundBlur"/>
<feBlend mode="normal" in="SourceGraphic" in2="effect1_backgroundBlur" result="shape"/>
<feColorMatrix in="SourceAlpha" type="matrix" values="0 0 0 0 0 0 0 0 0 0 0 0 0 0 0 0 0 0 127 0" result="hardAlpha"/>
<feOffset dy="0.5"/>
<feGaussianBlur stdDeviation="1"/>
<feComposite in2="hardAlpha" operator="arithmetic" k2="-1" k3="1"/>
<feColorMatrix type="matrix" values="0 0 0 0 1 0 0 0 0 1 0 0 0 0 1 0 0 0 0.4 0"/>
<feBlend mode="normal" in2="shape" result="effect2_innerShadow"/>
</filter>
<linearGradient id="paint0_linear" x1="5.60606" y1="9.65789" x2="14.9846" y2="10.3911" gradientUnits="userSpaceOnUse">
<stop stop-color="#DA1E5E"/>
<stop offset="1" stop-color="#F69322"/>
</linearGradient>
<linearGradient id="paint1_linear" x1="1.81006" y1="2.00098" x2="25.592" y2="8.03955" gradientUnits="userSpaceOnUse">
<stop stop-color="#FFD482"/>
<stop offset="1" stop-color="#FF377F"/>
</linearGradient>
<linearGradient id="paint2_linear" x1="2.44096" y1="2.91867" x2="21.9989" y2="2.91867" gradientUnits="userSpaceOnUse">
<stop stop-color="#FFC282"/>
<stop offset="1" stop-color="#FF4980"/>
</linearGradient>
</defs>
</svg>
