<svg width="530" height="723" viewBox="0 0 530 723" fill="none" xmlns="http://www.w3.org/2000/svg">
<path d="M188.965 0H160.677V723H188.965V0Z" fill="url(#paint0_linear)"/>
<path d="M285.709 0H257.421V723H285.709V0Z" fill="url(#paint1_linear)"/>
<path d="M0 79.4671C3.39456 79.4671 101.271 79.4671 147.663 79.4671C157.847 79.4671 226.87 78.8953 250.632 81.7543C310.602 89.1876 362.652 114.347 406.782 154.944C461.095 205.833 491.646 269.303 497.303 343.636C506.921 486.012 415.834 602.658 294.195 638.11C286.84 640.397 247.237 649.545 210.463 649.545C205.371 649.545 200.845 649.545 195.753 649.545C191.227 649.545 3.96027 649.545 0.565708 649.545C-5.18053e-05 459.71 0 269.874 0 79.4671ZM284.577 592.938C370.573 568.351 456.003 479.723 452.608 357.931C448.648 231.564 353.6 161.234 284.577 136.075C268.17 130.357 242.145 125.782 234.791 125.211C219.515 124.639 169.162 124.067 153.321 124.067C119.375 124.639 85.4298 124.067 51.4841 124.067C49.2211 124.067 46.9581 124.067 44.695 124.639C44.695 284.741 44.695 444.271 44.695 603.802C83.1667 603.802 121.638 603.802 160.676 603.802L189.53 603.23C208.766 602.658 251.197 603.802 284.577 592.938Z" fill="white"/>
<ellipse cx="487.625" cy="639.174" rx="41.5" ry="41.9131" fill="#DA1E5E"/>
<defs>
<linearGradient id="paint0_linear" x1="174.733" y1="723.114" x2="174.733" y2="0" gradientUnits="userSpaceOnUse">
<stop stop-color="#DA1E5E"/>
<stop offset="1" stop-color="#F69322"/>
</linearGradient>
<linearGradient id="paint1_linear" x1="271.477" y1="723.114" x2="271.477" y2="0" gradientUnits="userSpaceOnUse">
<stop stop-color="#DA1E5E"/>
<stop offset="1" stop-color="#F69322"/>
</linearGradient>
</defs>
</svg>
