<svg width="24" height="24" viewBox="0 0 24 24" fill="none" xmlns="http://www.w3.org/2000/svg">
<path fill-rule="evenodd" clip-rule="evenodd" d="M13 6H11C10.4477 6 10 6.44772 10 7V8C10 8.55228 10.4477 9 11 9H13C13.5523 9 14 8.55228 14 8V7C14 6.44772 13.5523 6 13 6ZM11 4C9.34315 4 8 5.34315 8 7V8C8 9.65685 9.34315 11 11 11H13C14.6569 11 16 9.65685 16 8V7C16 5.34315 14.6569 4 13 4H11Z" fill="url(#paint0_linear)"/>
<g filter="url(#filter0_bi)">
<path d="M18 20H6C4.34315 20 3 18.6569 3 17V13.5V10C3 8.34315 4.34315 7 6 7H18C19.6569 7 21 8.34315 21 10V13.5V17C21 18.6569 19.6569 20 18 20Z" fill="#F1F1F1" fill-opacity="0.3"/>
<path d="M18 20H6C4.34315 20 3 18.6569 3 17V13.5V10C3 8.34315 4.34315 7 6 7H18C19.6569 7 21 8.34315 21 10V13.5V17C21 18.6569 19.6569 20 18 20Z" fill="url(#paint1_linear)" fill-opacity="0.2"/>
<path d="M18 19.9H6C4.39837 19.9 3.1 18.6016 3.1 17V13.5V10C3.1 8.39837 4.39837 7.1 6 7.1H18C19.6016 7.1 20.9 8.39837 20.9 10V13.5V17C20.9 18.6016 19.6016 19.9 18 19.9Z" stroke="url(#paint2_linear)" stroke-opacity="0.1" stroke-width="0.2"/>
</g>
<g filter="url(#filter1_i)">
<rect x="7" y="10" width="10" height="2" rx="1" fill="white" fill-opacity="0.16"/>
</g>
<g filter="url(#filter2_i)">
<rect x="10" y="13" width="4" height="2" rx="1" fill="white" fill-opacity="0.16"/>
</g>
<defs>
<filter id="filter0_bi" x="0" y="4" width="24" height="19" filterUnits="userSpaceOnUse" color-interpolation-filters="sRGB">
<feFlood flood-opacity="0" result="BackgroundImageFix"/>
<feGaussianBlur in="BackgroundImage" stdDeviation="1.5"/>
<feComposite in2="SourceAlpha" operator="in" result="effect1_backgroundBlur"/>
<feBlend mode="normal" in="SourceGraphic" in2="effect1_backgroundBlur" result="shape"/>
<feColorMatrix in="SourceAlpha" type="matrix" values="0 0 0 0 0 0 0 0 0 0 0 0 0 0 0 0 0 0 127 0" result="hardAlpha"/>
<feOffset dy="0.5"/>
<feGaussianBlur stdDeviation="1"/>
<feComposite in2="hardAlpha" operator="arithmetic" k2="-1" k3="1"/>
<feColorMatrix type="matrix" values="0 0 0 0 1 0 0 0 0 1 0 0 0 0 1 0 0 0 0.4 0"/>
<feBlend mode="normal" in2="shape" result="effect2_innerShadow"/>
</filter>
<filter id="filter1_i" x="7" y="10" width="10" height="2.5" filterUnits="userSpaceOnUse" color-interpolation-filters="sRGB">
<feFlood flood-opacity="0" result="BackgroundImageFix"/>
<feBlend mode="normal" in="SourceGraphic" in2="BackgroundImageFix" result="shape"/>
<feColorMatrix in="SourceAlpha" type="matrix" values="0 0 0 0 0 0 0 0 0 0 0 0 0 0 0 0 0 0 127 0" result="hardAlpha"/>
<feOffset dy="0.5"/>
<feGaussianBlur stdDeviation="0.25"/>
<feComposite in2="hardAlpha" operator="arithmetic" k2="-1" k3="1"/>
<feColorMatrix type="matrix" values="0 0 0 0 1 0 0 0 0 1 0 0 0 0 1 0 0 0 0.4 0"/>
<feBlend mode="normal" in2="shape" result="effect1_innerShadow"/>
</filter>
<filter id="filter2_i" x="10" y="13" width="4" height="2.5" filterUnits="userSpaceOnUse" color-interpolation-filters="sRGB">
<feFlood flood-opacity="0" result="BackgroundImageFix"/>
<feBlend mode="normal" in="SourceGraphic" in2="BackgroundImageFix" result="shape"/>
<feColorMatrix in="SourceAlpha" type="matrix" values="0 0 0 0 0 0 0 0 0 0 0 0 0 0 0 0 0 0 127 0" result="hardAlpha"/>
<feOffset dy="0.5"/>
<feGaussianBlur stdDeviation="0.25"/>
<feComposite in2="hardAlpha" operator="arithmetic" k2="-1" k3="1"/>
<feColorMatrix type="matrix" values="0 0 0 0 1 0 0 0 0 1 0 0 0 0 1 0 0 0 0.4 0"/>
<feBlend mode="normal" in2="shape" result="effect1_innerShadow"/>
</filter>
<linearGradient id="paint0_linear" x1="8.33333" y1="5.4" x2="17.0038" y2="6.77626" gradientUnits="userSpaceOnUse">
<stop stop-color="#F69322"/>
<stop offset="1" stop-color="#DA1E5E"/>
</linearGradient>
<linearGradient id="paint1_linear" x1="3.75" y1="9.6" x2="23.0367" y2="13.309" gradientUnits="userSpaceOnUse">
<stop stop-color="#DA1E5E"/>
<stop offset="1" stop-color="#F69322"/>
</linearGradient>
<linearGradient id="paint2_linear" x1="3.5625" y1="7.59091" x2="21" y2="7.59091" gradientUnits="userSpaceOnUse">
<stop stop-color="#DA1E5E"/>
<stop offset="1" stop-color="#F69322"/>
</linearGradient>
</defs>
</svg>
